# xmcd CD database file
#
# Track frame offsets:
#	182
#	37102
#	56812
#	76185
#	90527
#	124875
#	157385
#	169982
#	182560
#	197537
#
# Disc length: 2760 seconds
#
# Revision: 0
# Processed by: cddbd v1.5.2PL0 Copyright (c) Steve Scherf et al.
# Submitted via: CDex 1.51
#
DISCID=870ac60a
DTITLE=Herb Ellis and Stuff Smith - The Harry Lookofsky Strings - Together
DYEAR=1963
DGENRE=Jazz
TTITLE0=Skip It
TTITLE1=Alone Together
TTITLE2=Blues for Janet
TTITLE3=How Come You Do Me Like You Do
TTITLE4=Get Acquainted Blues
TTITLE5=Hillcrest
TTITLE6=Swingin' Till The Girls Come Home
TTITLE7=Leaky Faucet
TTITLE8=Fiddle Mambo
TTITLE9=Little Bandmaster
EXTD=YEAR: 1963
EXTT0=
EXTT1=
EXTT2=
EXTT3=
EXTT4=
EXTT5=
EXTT6=
EXTT7=
EXTT8=
EXTT9=
PLAYORDER=
